# xmcd
#
# Track frame offsets:
#	150
#	18785
#	39632
#	63792
#	87035
#	103652
#	112940
#	131417
#	153165
#
# Disc length: 2564 seconds
#
# Revision: 1
# Processed by: cddbd v1.5.1PL0 Copyright (c) Steve Scherf et al.
# Submitted via: CDex 1.50Beta5
#
DISCID=5d0a0209
DTITLE=CHARISMA - First
DYEAR=1997
DGENRE=Rock
TTITLE0=First song
TTITLE1=Settle down
TTITLE2=I’m O.K.
TTITLE3=KIDS
TTITLE4=PANDA GO GO
TTITLE5=That’s not BAD
TTITLE6=Little fingers ring
TTITLE7=Can get dream
TTITLE8=Bills
EXTD=
EXTT0=
EXTT1=
EXTT2=
EXTT3=
EXTT4=
EXTT5=
EXTT6=
EXTT7=
EXTT8=
PLAYORDER=
